<svg width="140" height="133" viewBox="0 0 140 133" fill="none" xmlns="http://www.w3.org/2000/svg">
<path d="M70.2962 4.01179C67.522 4.06441 64.717 4.29334 61.8865 4.69921C59.02 5.11024 53.1299 6.4879 52.1698 6.97202C51.9477 7.084 50.7969 7.51264 49.6126 7.92421C47.4167 8.68725 41.6515 11.4111 38.98 12.9478C37.2723 13.9301 32.0913 17.8076 30.4846 19.3056C29.8835 19.8661 28.8664 20.7486 28.2239 21.2674C26.9371 22.3064 23.5126 26.2373 21.0281 29.527C19.6665 31.3299 16.0999 36.9596 16.0999 37.306C16.0999 37.3683 15.4942 38.6891 14.754 40.241C14.0137 41.7928 13.4081 43.2451 13.4081 43.4681C13.4081 43.6911 13.2869 43.9481 13.1389 44.0397C12.9908 44.1313 12.8697 44.3931 12.8697 44.6213C12.8697 44.8496 12.6988 45.4186 12.4896 45.8856C12.1365 46.674 11.4691 48.8718 10.5959 52.1246C8.37636 60.3927 8.48503 73.5743 10.8404 81.8385C11.0624 82.6176 11.4391 83.9516 11.6779 84.803C11.9166 85.6543 12.2828 86.7329 12.4912 87.2C12.6995 87.6671 12.8697 88.2361 12.8697 88.4643C12.8697 88.6925 12.9773 88.9455 13.1089 89.027C13.2406 89.1085 13.4296 89.5101 13.5285 89.9192C13.7853 90.9819 17.2569 97.9396 18.3821 99.6468C18.9035 100.438 19.33 101.152 19.33 101.234C19.33 101.674 25.5203 109.078 27.4054 110.892C31.0437 114.394 35.3097 117.744 38.7108 119.77C39.6732 120.344 40.5211 120.881 40.5951 120.964C40.9348 121.346 47.0313 124.213 48.9396 124.889C55.8785 127.345 59.6024 128.229 65.3595 128.782C68.302 129.065 75.6716 129.074 78.0109 128.798C82.8397 128.228 87.1146 127.34 90.9315 126.115C93.8369 125.182 93.8324 125.184 96.6362 123.862L98.7071 122.886L97.713 121.056C97.1661 120.05 96.4914 118.795 96.2136 118.268C95.1101 116.173 95.2212 116.215 93.0223 117.079C91.9463 117.502 90.9449 117.931 90.7969 118.032C90.6488 118.133 89.6192 118.477 88.5089 118.797C87.3985 119.117 86.1266 119.491 85.6825 119.628C82.5732 120.59 75.9417 121.52 72.1988 121.52C69.2606 121.52 62.8681 120.904 60.6489 120.408C55.2481 119.2 51.8932 118.053 47.6431 115.963C44.1586 114.249 41.2631 112.499 38.5663 110.479C36.6966 109.079 28.7512 101.374 28.7512 100.962C28.7512 100.843 28.1651 100.039 27.4485 99.1772C26.0246 97.4643 23.1479 92.6396 21.6485 89.4496C18.0209 81.7316 16.1667 71.5129 16.8611 63.0633C17.6556 53.3961 19.6991 46.8319 24.5579 38.3393C28.2666 31.857 36.3045 23.8218 43.2869 19.6162C55.1591 12.4653 70.6653 10.059 83.9328 13.3088C84.8951 13.5446 86.2276 13.8544 86.8938 13.9973C87.56 14.1402 88.3473 14.3665 88.6434 14.5C88.9395 14.6335 89.7874 14.9536 90.5277 15.2116C95.2741 16.8658 100.17 19.6136 105.198 23.4449C107.866 25.4782 112.915 30.5247 114.849 33.0925C124.983 46.547 128.43 62.3546 124.876 79.0741C124.554 80.5868 123.844 83.108 123.509 83.925C123.388 84.2214 123.02 85.2423 122.692 86.1931C121.87 88.5736 119.072 93.9897 117.17 96.8834C114.424 101.06 108.119 107.996 107.46 107.565C107.168 107.373 106.562 106.347 104.723 102.924C104.205 101.961 103.464 100.63 103.077 99.9668C102.689 99.3035 102.069 98.1905 101.699 97.4934C101.328 96.7963 100.162 94.6709 99.1062 92.7704C98.0506 90.87 96.8503 88.7085 96.4386 87.9674C96.0268 87.2263 94.5734 84.6189 93.209 82.1733C91.8445 79.7276 90.3384 76.999 89.8621 76.1096C89.3858 75.2203 88.8869 74.3776 88.7528 74.2368C88.6187 74.096 88.5089 73.773 88.5089 73.5189C88.5089 73.1453 88.8312 73.032 90.1912 72.9288C95.3399 72.5383 99.0016 70.8929 102.389 67.4468C105.028 64.7614 106.437 62.1036 107.226 58.3229C107.695 56.0752 107.718 54.7691 107.332 52.1761C106.399 45.8995 102.166 40.6071 96.1904 38.2424C92.9265 36.9504 91.5152 36.8429 79.2222 36.9444L67.9167 37.0376L65.9515 37.765C62.0001 39.2272 59.0205 41.7633 56.6081 45.7172L55.4204 47.6637L73.5127 47.7384C91.5556 47.8129 91.6073 47.8143 92.6811 48.4032C96.1475 50.3044 97.7253 54.2211 96.334 57.4708C95.629 59.1173 94.0119 60.8519 92.5465 61.5332C91.3646 62.0827 90.8807 62.0997 72.6273 62.2401C55.9699 62.3682 53.7474 62.4351 52.349 62.8491C50.139 63.5034 48.2173 64.4504 46.6611 65.653C45.1117 66.8503 42.5838 69.7918 41.8106 71.2971C41.5169 71.869 40.9405 72.9201 40.5299 73.6326C40.1193 74.3451 39.3434 75.7397 38.8055 76.7318C38.2675 77.7238 37.5617 79.0202 37.2372 79.6131C36.9127 80.2059 36.1879 81.54 35.6263 82.5775C35.0647 83.6151 34.5138 84.5852 34.4024 84.7335C34.291 84.8817 33.6351 86.0641 32.9445 87.361L31.6891 89.7191H37.7235H43.7585L45.1049 87.361C45.8456 86.0641 47.2741 83.487 48.2793 81.6343C51.2242 76.2061 52.5183 74.487 54.38 73.5263C55.3118 73.0454 56.062 73.0104 65.585 73.0104C73.4278 73.0104 75.8539 73.0885 76.0599 73.3473C76.2073 73.5326 76.751 74.4724 77.268 75.4359C78.7861 78.2648 79.6361 79.7855 80.6023 81.4001C81.1017 82.2347 81.5102 82.9955 81.5102 83.0902C81.5102 83.1849 81.7924 83.7147 82.1374 84.2676C82.7402 85.2335 84.1213 87.702 85.488 90.2581C85.8446 90.9251 86.5486 92.1537 87.0531 92.9883C87.5576 93.8229 87.9705 94.5837 87.9705 94.6785C87.9705 94.7732 88.2548 95.303 88.6024 95.8559C89.2396 96.8692 93.4759 104.414 95.3708 107.91C95.9331 108.948 96.4819 109.918 96.59 110.066C96.6981 110.214 97.2465 111.184 97.8092 112.222C98.3718 113.26 99.0538 114.472 99.3243 114.917C99.5949 115.362 99.9676 116.029 100.153 116.399C100.897 117.887 102.561 120.711 102.694 120.711C103.156 120.711 107.877 117.612 110.043 115.886C113.164 113.4 117.749 108.885 119.923 106.158C124.682 100.189 127.312 95.6064 130.262 88.1453C132.621 82.1795 134 74.189 134 66.4894C134 54.7482 131.091 44.2713 124.973 33.9736C120.365 26.2177 112.033 17.8525 104.256 13.1741C93.7656 6.86359 82.3176 3.78378 70.2962 4.01179Z" fill="url(#paint0_linear_1271_203)"/>
<defs>
<linearGradient id="paint0_linear_1271_203" x1="15.6961" y1="-16.2121" x2="126.773" y2="142.533" gradientUnits="userSpaceOnUse">
<stop stop-color="#5E7BE9"/>
<stop offset="0.544" stop-color="#3CAFE1"/>
<stop offset="1" stop-color="#1BE3DA"/>
</linearGradient>
</defs>
</svg>
