<svg width="91" height="91" viewBox="0 0 91 91" fill="none" xmlns="http://www.w3.org/2000/svg">
<path d="M44.6236 0.00857395C42.604 0.0468356 40.5619 0.213303 38.5014 0.508429C36.4146 0.807304 32.1266 1.80906 31.4276 2.16109C31.2659 2.24251 30.4282 2.5542 29.5659 2.85346C27.9674 3.4083 23.7703 5.38891 21.8255 6.50632C20.5823 7.2206 16.8105 10.0401 15.6408 11.1294C15.2032 11.5369 14.4627 12.1786 13.995 12.5559C13.0582 13.3114 10.5652 16.1697 8.75648 18.5618C7.7652 19.8728 5.1687 23.9664 5.1687 24.2183C5.1687 24.2636 4.72778 25.224 4.18889 26.3524C3.65 27.4809 3.20908 28.5369 3.20908 28.699C3.20908 28.8612 3.1209 29.0481 3.01312 29.1147C2.90534 29.1813 2.81715 29.3716 2.81715 29.5376C2.81715 29.7035 2.69273 30.1173 2.54044 30.4569C2.28338 31.0302 1.7975 32.6282 1.16181 34.9935C-0.454007 41.0057 -0.3749 50.5905 1.33979 56.5998C1.50144 57.1664 1.77568 58.1364 1.94949 58.7554C2.1233 59.3745 2.38991 60.1588 2.54158 60.4984C2.69326 60.838 2.81715 61.2518 2.81715 61.4177C2.81715 61.5837 2.89546 61.7676 2.9913 61.8269C3.08714 61.8861 3.22475 62.1782 3.29673 62.4756C3.48373 63.2484 6.01104 68.3077 6.83016 69.549C7.20975 70.1243 7.52024 70.6436 7.52024 70.703C7.52024 71.0233 12.0268 76.4071 13.3991 77.7262C16.0478 80.2723 19.1534 82.7082 21.6295 84.1819C22.3301 84.5988 22.9473 84.9895 23.0012 85.0499C23.2486 85.3274 27.6868 87.4123 29.076 87.9036C34.1276 89.69 36.8385 90.3322 41.0297 90.7347C43.1719 90.9405 48.5369 90.9471 50.2399 90.7462C53.7553 90.3314 56.8674 89.6859 59.6461 88.795C61.7612 88.1168 61.758 88.1179 63.7992 87.1573L65.3068 86.4477L64.583 85.1169C64.1849 84.385 63.6937 83.4726 63.4915 83.0891C62.6882 81.5661 62.769 81.5962 61.1683 82.2249C60.3849 82.5326 59.6559 82.8443 59.5481 82.9177C59.4403 82.991 58.6908 83.2412 57.8824 83.4738C57.0741 83.7064 56.1482 83.9787 55.8248 84.0785C53.5613 84.7775 48.7336 85.4537 46.0088 85.4537C43.8697 85.4537 39.216 85.0063 37.6004 84.6453C33.6686 83.7668 31.2262 82.9332 28.1322 81.4131C25.5955 80.1668 23.4876 78.8948 21.5242 77.4258C20.1631 76.4073 14.3789 70.8053 14.3789 70.5055C14.3789 70.4186 13.9522 69.8345 13.4305 69.2076C12.3939 67.962 10.2996 64.4538 9.20812 62.1342C6.5672 56.5221 5.21736 49.0916 5.7229 42.9476C6.3013 35.9181 7.78892 31.145 11.3262 24.9696C14.0261 20.2561 19.8777 14.4133 24.9608 11.3552C33.6039 6.15547 44.8924 4.40575 54.5511 6.76887C55.2517 6.94027 56.2217 7.16559 56.7067 7.26949C57.1917 7.37339 57.7649 7.53792 57.9804 7.635C58.196 7.73209 58.8133 7.96488 59.3522 8.15247C62.8075 9.35527 66.3717 11.3533 70.0321 14.1393C71.9747 15.6178 75.6499 19.2873 77.058 21.1545C84.4359 30.9378 86.9453 42.4322 84.3576 54.5897C84.1235 55.6896 83.6065 57.523 83.3628 58.117C83.2744 58.3326 83.0066 59.0749 82.7677 59.7662C82.1694 61.4972 80.1326 65.4355 78.7478 67.5396C76.7489 70.5767 72.1583 75.6205 71.6786 75.3065C71.466 75.1674 71.0254 74.4214 69.6861 71.9323C69.3091 71.2318 68.7699 70.264 68.4877 69.7817C68.2055 69.2994 67.754 68.4901 67.4846 67.9832C67.2151 67.4763 66.3658 65.9308 65.5973 64.5489C64.8288 63.167 63.955 61.5953 63.6553 61.0564C63.3555 60.5175 62.2974 58.6216 61.3041 56.8433C60.3108 55.0649 59.2143 53.0808 58.8676 52.4341C58.5209 51.7874 58.1576 51.1747 58.06 51.0723C57.9624 50.9699 57.8824 50.7351 57.8824 50.5503C57.8824 50.2786 58.1171 50.1962 59.1072 50.1212C62.8554 49.8373 65.5212 48.6408 67.9871 46.135C69.9087 44.1823 70.9343 42.2497 71.5087 39.5006C71.8502 37.8662 71.8669 36.9165 71.586 35.031C70.9061 30.467 67.8251 26.6187 63.4746 24.8992C61.0985 23.9597 60.0711 23.8816 51.1218 23.9553L42.8914 24.0231L41.4607 24.552C38.5841 25.6153 36.4149 27.4593 34.6587 30.3344L33.7941 31.7498L46.9652 31.8041C60.1004 31.8583 60.1381 31.8593 60.9199 32.2875C63.4434 33.67 64.592 36.518 63.5791 38.881C63.0659 40.0783 61.8887 41.3395 60.8219 41.8349C59.9615 42.2345 59.6091 42.2468 46.3207 42.349C34.1941 42.4421 32.5761 42.4908 31.5581 42.7918C29.9492 43.2676 28.5502 43.9562 27.4173 44.8306C26.2893 45.7012 24.449 47.8401 23.8861 48.9347C23.6723 49.3506 23.2527 50.1149 22.9538 50.6329C22.6548 51.151 22.09 52.1651 21.6984 52.8865C21.3067 53.6079 20.7929 54.5505 20.5567 54.9816C20.3205 55.4127 19.7928 56.3828 19.384 57.1372C18.9751 57.8917 18.5741 58.5971 18.493 58.7049C18.4119 58.8127 17.9343 59.6724 17.4316 60.6155L16.5176 62.3302H20.9107H25.3042L26.2844 60.6155C26.8236 59.6724 27.8636 57.7986 28.5953 56.4513C30.7392 52.5043 31.6813 51.2542 33.0366 50.5556C33.715 50.206 34.2611 50.1805 41.1939 50.1805C46.9035 50.1805 48.6696 50.2373 48.8196 50.4255C48.9269 50.5602 49.3227 51.2436 49.6991 51.9442C50.8043 54.0012 51.4231 55.107 52.1264 56.281C52.49 56.8879 52.7874 57.4411 52.7874 57.51C52.7874 57.5789 52.9928 57.9641 53.244 58.3662C53.6829 59.0685 54.6883 60.8635 55.6832 62.7221C55.9428 63.2071 56.4554 64.1005 56.8226 64.7074C57.1899 65.3143 57.4905 65.8675 57.4905 65.9363C57.4905 66.0052 57.6975 66.3905 57.9506 66.7925C58.4144 67.5293 61.4984 73.0152 62.8779 75.5576C63.2873 76.3121 63.6868 77.0175 63.7655 77.1253C63.8442 77.2331 64.2435 77.9386 64.6531 78.693C65.0627 79.4475 65.5592 80.3293 65.7561 80.6526C65.9531 80.976 66.2244 81.461 66.3593 81.7304C66.901 82.8124 68.1125 84.8658 68.2091 84.8658C68.5456 84.8658 71.9825 82.612 73.5594 81.3572C75.8311 79.5496 79.1691 76.2668 80.7518 74.2839C84.2163 69.9431 86.1311 66.6111 88.2787 61.1858C89.9959 56.8478 91 51.0376 91 45.4388C91 36.9013 88.8825 29.2831 84.4284 21.7952C81.0737 16.1555 75.0079 10.0727 69.3462 6.67089C61.7094 2.08225 53.3752 -0.157226 44.6236 0.00857395Z" fill="url(#paint0_linear_1299_546)"/>
<defs>
<linearGradient id="paint0_linear_1299_546" x1="4.87475" y1="-14.6971" x2="85.611" y2="100.822" gradientUnits="userSpaceOnUse">
<stop stop-color="#1BE3DA"/>
<stop offset="0.564" stop-color="#3CAFE1"/>
<stop offset="1" stop-color="#5E7BE9"/>
</linearGradient>
</defs>
</svg>
